<svg width="249" height="250" viewBox="0 0 249 250" fill="none" xmlns="http://www.w3.org/2000/svg">
<mask id="path-1-inside-1_14_26435" fill="white">
<path fill-rule="evenodd" clip-rule="evenodd" d="M124.386 0C124.387 0.134193 124.387 0.268437 124.387 0.40273C124.388 0.268437 124.388 0.134193 124.388 0H124.386ZM124.387 0.652191C124.32 69.4072 68.7042 125.156 0 125.439V125.441C68.5705 125.723 124.104 181.256 124.386 249.826H124.388C124.671 181.257 180.203 125.724 248.772 125.441V125.439C180.069 125.155 124.455 69.4063 124.387 0.652191Z"/>
</mask>
<path fill-rule="evenodd" clip-rule="evenodd" d="M124.386 0C124.387 0.134193 124.387 0.268437 124.387 0.40273C124.388 0.268437 124.388 0.134193 124.388 0H124.386ZM124.387 0.652191C124.32 69.4072 68.7042 125.156 0 125.439V125.441C68.5705 125.723 124.104 181.256 124.386 249.826H124.388C124.671 181.257 180.203 125.724 248.772 125.441V125.439C180.069 125.155 124.455 69.4063 124.387 0.652191Z" fill="black"/>
<path d="M124.387 0.40273L122.387 0.404661L126.387 0.404661L124.387 0.40273ZM124.386 0V-2H122.378L122.386 0.00830057L124.386 0ZM124.388 0L126.388 0.00830057L126.397 -2H124.388V0ZM0 125.439L-0.00824028 123.439L-2 123.448V125.439H0ZM124.387 0.652191L126.387 0.650236H122.387L124.387 0.652191ZM0 125.441H-2V127.432L-0.00824011 127.441L0 125.441ZM124.386 249.826L122.386 249.835L122.395 251.826H124.386V249.826ZM124.388 249.826V251.826H126.38L126.388 249.835L124.388 249.826ZM248.772 125.441L248.78 127.441L250.772 127.432V125.441H248.772ZM248.772 125.439H250.772V123.448L248.78 123.439L248.772 125.439ZM126.387 0.400798C126.387 0.264384 126.387 0.128017 126.386 -0.00830057L122.386 0.00830057C122.387 0.140369 122.387 0.27249 122.387 0.404661L126.387 0.400798ZM122.388 -0.00830057C122.388 0.128017 122.388 0.264384 122.387 0.400798L126.387 0.404661C126.388 0.27249 126.388 0.140369 126.388 0.00830057L122.388 -0.00830057ZM124.386 2H124.388V-2H124.386V2ZM0.00824028 127.439C69.8127 127.152 126.319 70.51 126.387 0.654147L122.387 0.650236C122.321 68.3043 67.5958 123.161 -0.00824028 123.439L0.00824028 127.439ZM2 125.441V125.439H-2V125.441H2ZM-0.00824011 127.441C67.4641 127.719 122.108 182.362 122.386 249.835L126.386 249.818C126.099 180.15 69.6768 123.728 0.00824011 123.441L-0.00824011 127.441ZM124.388 247.826H124.386V251.826H124.388V247.826ZM248.764 123.441C179.097 123.729 122.676 180.15 122.388 249.818L126.388 249.835C126.667 182.363 181.309 127.72 248.78 127.441L248.764 123.441ZM246.772 125.439V125.441H250.772V125.439H246.772ZM122.387 0.654147C122.456 70.5092 178.961 127.15 248.764 127.439L248.78 123.439C181.178 123.16 126.454 68.3034 126.387 0.650236L122.387 0.654147Z" fill="#D2FB51" mask="url(#path-1-inside-1_14_26435)"/>
</svg>
