<svg width="929" height="128" viewBox="0 0 929 128" fill="none" xmlns="http://www.w3.org/2000/svg">
<path d="M44.392 72.24C43.112 72.24 42 71.984 41.056 71.472C40.112 70.944 39.392 70.24 38.896 69.36C38.4 68.48 38.152 67.52 38.152 66.48C38.152 65.632 38.32 64.832 38.656 64.08C39.008 63.312 39.4 62.632 39.832 62.04L44.392 55.68C44.408 55.664 44.456 55.608 44.536 55.512C44.6 55.416 44.688 55.344 44.8 55.296C44.912 55.232 45.04 55.2 45.184 55.2H46.456C46.6 55.2 46.712 55.256 46.792 55.368C46.888 55.464 46.936 55.584 46.936 55.728C46.936 55.84 46.904 55.944 46.84 56.04L43.336 60.936C43.688 60.824 44.144 60.768 44.704 60.768C45.856 60.784 46.872 61.048 47.752 61.56C48.648 62.072 49.336 62.76 49.816 63.624C50.312 64.488 50.56 65.432 50.56 66.456C50.56 67.48 50.312 68.44 49.816 69.336C49.336 70.216 48.624 70.92 47.68 71.448C46.752 71.976 45.656 72.24 44.392 72.24ZM44.368 70.2C45.056 70.2 45.688 70.056 46.264 69.768C46.856 69.48 47.32 69.056 47.656 68.496C48.008 67.92 48.184 67.24 48.184 66.456C48.184 65.688 48.008 65.024 47.656 64.464C47.32 63.904 46.856 63.48 46.264 63.192C45.688 62.904 45.056 62.76 44.368 62.76C43.696 62.76 43.064 62.904 42.472 63.192C41.896 63.48 41.432 63.904 41.08 64.464C40.728 65.024 40.552 65.688 40.552 66.456C40.552 67.24 40.728 67.92 41.08 68.496C41.432 69.056 41.896 69.48 42.472 69.768C43.048 70.056 43.68 70.2 44.368 70.2ZM59.0689 72.24C57.0049 72.24 55.4929 71.64 54.5329 70.44C53.5729 69.24 53.0609 67.664 52.9969 65.712C52.9809 65.28 52.9729 64.584 52.9729 63.624C52.9729 62.632 52.9809 61.912 52.9969 61.464C53.0449 59.544 53.5569 57.984 54.5329 56.784C55.5089 55.568 57.0209 54.96 59.0689 54.96C61.1329 54.96 62.6529 55.568 63.6289 56.784C64.6049 57.984 65.1169 59.544 65.1649 61.464C65.1969 62.36 65.2129 63.08 65.2129 63.624C65.2129 64.152 65.1969 64.848 65.1649 65.712C65.1009 67.664 64.5889 69.24 63.6289 70.44C62.6689 71.64 61.1489 72.24 59.0689 72.24ZM59.0689 70.176C60.2689 70.176 61.1729 69.776 61.7809 68.976C62.4049 68.176 62.7329 67.048 62.7649 65.592C62.7969 64.664 62.8129 63.992 62.8129 63.576C62.8129 63.128 62.7969 62.472 62.7649 61.608C62.7329 60.168 62.4129 59.04 61.8049 58.224C61.1969 57.408 60.2849 57 59.0689 57C57.8689 57 56.9569 57.408 56.3329 58.224C55.7249 59.04 55.4049 60.168 55.3729 61.608L55.3489 63.576L55.3729 65.592C55.4049 67.048 55.7249 68.176 56.3329 68.976C56.9569 69.776 57.8689 70.176 59.0689 70.176ZM71.3273 63.624C70.2873 63.624 69.4633 63.352 68.8553 62.808C68.2633 62.248 67.9353 61.48 67.8713 60.504C67.8553 60.232 67.8473 59.88 67.8473 59.448C67.8473 58.984 67.8553 58.608 67.8713 58.32C67.9193 57.328 68.2313 56.544 68.8073 55.968C69.3993 55.376 70.2393 55.08 71.3273 55.08C72.4153 55.08 73.2473 55.376 73.8233 55.968C74.4153 56.544 74.7353 57.328 74.7833 58.32C74.8153 58.96 74.8313 59.368 74.8313 59.544C74.8313 59.704 74.8153 60.024 74.7833 60.504C74.7353 61.48 74.4073 62.248 73.7993 62.808C73.1913 63.352 72.3673 63.624 71.3273 63.624ZM69.3113 72C69.1673 72 69.0473 71.96 68.9513 71.88C68.8553 71.784 68.8073 71.664 68.8073 71.52C68.8073 71.424 68.8393 71.336 68.9033 71.256L80.7593 55.656C80.8873 55.48 80.9993 55.36 81.0953 55.296C81.2073 55.232 81.3593 55.2 81.5513 55.2H82.3433C82.5033 55.2 82.6233 55.248 82.7033 55.344C82.7993 55.424 82.8473 55.536 82.8473 55.68C82.8473 55.776 82.8153 55.864 82.7513 55.944L70.9193 71.544C70.7913 71.72 70.6713 71.84 70.5593 71.904C70.4633 71.968 70.3113 72 70.1033 72H69.3113ZM71.3273 62.136C71.9033 62.136 72.3193 61.968 72.5753 61.632C72.8473 61.296 73.0073 60.888 73.0553 60.408C73.0873 59.832 73.1033 59.496 73.1033 59.4C73.1033 59.256 73.0873 58.928 73.0553 58.416C73.0233 57.92 72.8633 57.504 72.5753 57.168C72.3033 56.832 71.8873 56.664 71.3273 56.664C70.7673 56.664 70.3513 56.832 70.0793 57.168C69.8073 57.504 69.6553 57.92 69.6233 58.416C69.6073 58.672 69.5993 59 69.5993 59.4C69.5993 59.784 69.6073 60.12 69.6233 60.408C69.6713 60.904 69.8233 61.32 70.0793 61.656C70.3513 61.976 70.7673 62.136 71.3273 62.136ZM80.3033 72.144C79.2633 72.144 78.4393 71.856 77.8313 71.28C77.2393 70.688 76.9113 69.904 76.8473 68.928C76.8313 68.656 76.8233 68.304 76.8233 67.872C76.8233 67.408 76.8313 67.032 76.8473 66.744C76.9113 65.752 77.2313 64.968 77.8073 64.392C78.3993 63.8 79.2313 63.504 80.3033 63.504C81.3913 63.504 82.2233 63.8 82.7993 64.392C83.3913 64.968 83.7193 65.752 83.7833 66.744C83.8153 67.32 83.8313 67.696 83.8313 67.872C83.8313 68.032 83.8153 68.384 83.7833 68.928C83.7193 69.904 83.3833 70.688 82.7753 71.28C82.1673 71.856 81.3433 72.144 80.3033 72.144ZM80.3033 70.56C80.8793 70.56 81.2953 70.392 81.5513 70.056C81.8233 69.72 81.9833 69.312 82.0313 68.832C82.0633 68.256 82.0793 67.92 82.0793 67.824C82.0793 67.68 82.0633 67.352 82.0313 66.84C81.9993 66.344 81.8473 65.928 81.5753 65.592C81.3033 65.256 80.8793 65.088 80.3033 65.088C79.7433 65.088 79.3273 65.256 79.0553 65.592C78.7833 65.928 78.6313 66.344 78.5993 66.84C78.5833 67.096 78.5753 67.424 78.5753 67.824C78.5753 68.208 78.5833 68.544 78.5993 68.832C78.6473 69.312 78.7993 69.72 79.0553 70.056C79.3273 70.392 79.7433 70.56 80.3033 70.56Z" fill="white"/>
<rect x="1" y="1" width="833" height="126" stroke="#D2FB51" stroke-width="2"/>
<rect x="477" width="333" height="128" fill="#D2FB51"/>
<rect x="810" width="119" height="128" fill="white"/>
<path d="M526.152 72.24C524.888 72.24 523.792 72.04 522.864 71.64C521.952 71.224 521.256 70.688 520.776 70.032C520.312 69.376 520.064 68.688 520.032 67.968C520.032 67.824 520.08 67.712 520.176 67.632C520.272 67.536 520.392 67.488 520.536 67.488H521.712C522.048 67.488 522.272 67.664 522.384 68.016C522.592 68.816 523.04 69.384 523.728 69.72C524.416 70.04 525.224 70.2 526.152 70.2C527.288 70.2 528.192 69.936 528.864 69.408C529.536 68.864 529.872 68.088 529.872 67.08C529.872 65.144 528.696 64.176 526.344 64.176H524.064C523.904 64.176 523.768 64.128 523.656 64.032C523.56 63.92 523.512 63.784 523.512 63.624V62.976C523.512 62.752 523.6 62.536 523.776 62.328L528.432 57.24H521.352C521.192 57.24 521.056 57.192 520.944 57.096C520.848 56.984 520.8 56.848 520.8 56.688V55.776C520.8 55.616 520.848 55.48 520.944 55.368C521.056 55.256 521.192 55.2 521.352 55.2H530.928C531.104 55.2 531.24 55.256 531.336 55.368C531.448 55.464 531.504 55.6 531.504 55.776V56.64C531.504 56.832 531.416 57.016 531.24 57.192L526.608 62.352L526.992 62.376C528.624 62.424 529.912 62.848 530.856 63.648C531.8 64.448 532.272 65.616 532.272 67.152C532.272 68.192 532.008 69.096 531.48 69.864C530.952 70.632 530.224 71.224 529.296 71.64C528.368 72.04 527.32 72.24 526.152 72.24ZM541.022 72.24C538.958 72.24 537.446 71.64 536.486 70.44C535.526 69.24 535.014 67.664 534.95 65.712C534.934 65.28 534.926 64.584 534.926 63.624C534.926 62.632 534.934 61.912 534.95 61.464C534.998 59.544 535.51 57.984 536.486 56.784C537.462 55.568 538.974 54.96 541.022 54.96C543.086 54.96 544.606 55.568 545.582 56.784C546.558 57.984 547.07 59.544 547.118 61.464C547.15 62.36 547.166 63.08 547.166 63.624C547.166 64.152 547.15 64.848 547.118 65.712C547.054 67.664 546.542 69.24 545.582 70.44C544.622 71.64 543.102 72.24 541.022 72.24ZM541.022 70.176C542.222 70.176 543.126 69.776 543.734 68.976C544.358 68.176 544.686 67.048 544.718 65.592C544.75 64.664 544.766 63.992 544.766 63.576C544.766 63.128 544.75 62.472 544.718 61.608C544.686 60.168 544.366 59.04 543.758 58.224C543.15 57.408 542.238 57 541.022 57C539.822 57 538.91 57.408 538.286 58.224C537.678 59.04 537.358 60.168 537.326 61.608L537.302 63.576L537.326 65.592C537.358 67.048 537.678 68.176 538.286 68.976C538.91 69.776 539.822 70.176 541.022 70.176ZM553.28 63.624C552.24 63.624 551.416 63.352 550.808 62.808C550.216 62.248 549.888 61.48 549.824 60.504C549.808 60.232 549.8 59.88 549.8 59.448C549.8 58.984 549.808 58.608 549.824 58.32C549.872 57.328 550.184 56.544 550.76 55.968C551.352 55.376 552.192 55.08 553.28 55.08C554.368 55.08 555.2 55.376 555.776 55.968C556.368 56.544 556.688 57.328 556.736 58.32C556.768 58.96 556.784 59.368 556.784 59.544C556.784 59.704 556.768 60.024 556.736 60.504C556.688 61.48 556.36 62.248 555.752 62.808C555.144 63.352 554.32 63.624 553.28 63.624ZM551.264 72C551.12 72 551 71.96 550.904 71.88C550.808 71.784 550.76 71.664 550.76 71.52C550.76 71.424 550.792 71.336 550.856 71.256L562.712 55.656C562.84 55.48 562.952 55.36 563.048 55.296C563.16 55.232 563.312 55.2 563.504 55.2H564.296C564.456 55.2 564.576 55.248 564.656 55.344C564.752 55.424 564.8 55.536 564.8 55.68C564.8 55.776 564.768 55.864 564.704 55.944L552.872 71.544C552.744 71.72 552.624 71.84 552.512 71.904C552.416 71.968 552.264 72 552.056 72H551.264ZM553.28 62.136C553.856 62.136 554.272 61.968 554.528 61.632C554.8 61.296 554.96 60.888 555.008 60.408C555.04 59.832 555.056 59.496 555.056 59.4C555.056 59.256 555.04 58.928 555.008 58.416C554.976 57.92 554.816 57.504 554.528 57.168C554.256 56.832 553.84 56.664 553.28 56.664C552.72 56.664 552.304 56.832 552.032 57.168C551.76 57.504 551.608 57.92 551.576 58.416C551.56 58.672 551.552 59 551.552 59.4C551.552 59.784 551.56 60.12 551.576 60.408C551.624 60.904 551.776 61.32 552.032 61.656C552.304 61.976 552.72 62.136 553.28 62.136ZM562.256 72.144C561.216 72.144 560.392 71.856 559.784 71.28C559.192 70.688 558.864 69.904 558.8 68.928C558.784 68.656 558.776 68.304 558.776 67.872C558.776 67.408 558.784 67.032 558.8 66.744C558.864 65.752 559.184 64.968 559.76 64.392C560.352 63.8 561.184 63.504 562.256 63.504C563.344 63.504 564.176 63.8 564.752 64.392C565.344 64.968 565.672 65.752 565.736 66.744C565.768 67.32 565.784 67.696 565.784 67.872C565.784 68.032 565.768 68.384 565.736 68.928C565.672 69.904 565.336 70.688 564.728 71.28C564.12 71.856 563.296 72.144 562.256 72.144ZM562.256 70.56C562.832 70.56 563.248 70.392 563.504 70.056C563.776 69.72 563.936 69.312 563.984 68.832C564.016 68.256 564.032 67.92 564.032 67.824C564.032 67.68 564.016 67.352 563.984 66.84C563.952 66.344 563.8 65.928 563.528 65.592C563.256 65.256 562.832 65.088 562.256 65.088C561.696 65.088 561.28 65.256 561.008 65.592C560.736 65.928 560.584 66.344 560.552 66.84C560.536 67.096 560.528 67.424 560.528 67.824C560.528 68.208 560.536 68.544 560.552 68.832C560.6 69.312 560.752 69.72 561.008 70.056C561.28 70.392 561.696 70.56 562.256 70.56Z" fill="black"/>
<path d="M841.624 72C841.464 72 841.328 71.952 841.216 71.856C841.12 71.744 841.072 71.608 841.072 71.448V58.008L837.088 61.08C836.976 61.176 836.856 61.224 836.728 61.224C836.584 61.224 836.448 61.144 836.32 60.984L835.696 60.192C835.616 60.08 835.576 59.968 835.576 59.856C835.576 59.664 835.656 59.512 835.816 59.4L841.048 55.368C841.224 55.256 841.432 55.2 841.672 55.2H842.896C843.056 55.2 843.184 55.256 843.28 55.368C843.392 55.464 843.448 55.592 843.448 55.752V71.448C843.448 71.608 843.392 71.744 843.28 71.856C843.184 71.952 843.056 72 842.896 72H841.624ZM852.874 72.24C850.81 72.24 849.298 71.64 848.338 70.44C847.378 69.24 846.866 67.664 846.802 65.712C846.786 65.28 846.778 64.584 846.778 63.624C846.778 62.632 846.786 61.912 846.802 61.464C846.85 59.544 847.362 57.984 848.338 56.784C849.314 55.568 850.826 54.96 852.874 54.96C854.938 54.96 856.458 55.568 857.434 56.784C858.41 57.984 858.922 59.544 858.97 61.464C859.002 62.36 859.018 63.08 859.018 63.624C859.018 64.152 859.002 64.848 858.97 65.712C858.906 67.664 858.394 69.24 857.434 70.44C856.474 71.64 854.954 72.24 852.874 72.24ZM852.874 70.176C854.074 70.176 854.978 69.776 855.586 68.976C856.21 68.176 856.538 67.048 856.57 65.592C856.602 64.664 856.618 63.992 856.618 63.576C856.618 63.128 856.602 62.472 856.57 61.608C856.538 60.168 856.218 59.04 855.61 58.224C855.002 57.408 854.09 57 852.874 57C851.674 57 850.762 57.408 850.138 58.224C849.53 59.04 849.21 60.168 849.178 61.608L849.154 63.576L849.178 65.592C849.21 67.048 849.53 68.176 850.138 68.976C850.762 69.776 851.674 70.176 852.874 70.176ZM865.132 63.624C864.092 63.624 863.268 63.352 862.66 62.808C862.068 62.248 861.74 61.48 861.676 60.504C861.66 60.232 861.652 59.88 861.652 59.448C861.652 58.984 861.66 58.608 861.676 58.32C861.724 57.328 862.036 56.544 862.612 55.968C863.204 55.376 864.044 55.08 865.132 55.08C866.22 55.08 867.052 55.376 867.628 55.968C868.22 56.544 868.54 57.328 868.588 58.32C868.62 58.96 868.636 59.368 868.636 59.544C868.636 59.704 868.62 60.024 868.588 60.504C868.54 61.48 868.212 62.248 867.604 62.808C866.996 63.352 866.172 63.624 865.132 63.624ZM863.116 72C862.972 72 862.852 71.96 862.756 71.88C862.66 71.784 862.612 71.664 862.612 71.52C862.612 71.424 862.644 71.336 862.708 71.256L874.564 55.656C874.692 55.48 874.804 55.36 874.9 55.296C875.012 55.232 875.164 55.2 875.356 55.2H876.148C876.308 55.2 876.428 55.248 876.508 55.344C876.604 55.424 876.652 55.536 876.652 55.68C876.652 55.776 876.62 55.864 876.556 55.944L864.724 71.544C864.596 71.72 864.476 71.84 864.364 71.904C864.268 71.968 864.116 72 863.908 72H863.116ZM865.132 62.136C865.708 62.136 866.124 61.968 866.38 61.632C866.652 61.296 866.812 60.888 866.86 60.408C866.892 59.832 866.908 59.496 866.908 59.4C866.908 59.256 866.892 58.928 866.86 58.416C866.828 57.92 866.668 57.504 866.38 57.168C866.108 56.832 865.692 56.664 865.132 56.664C864.572 56.664 864.156 56.832 863.884 57.168C863.612 57.504 863.46 57.92 863.428 58.416C863.412 58.672 863.404 59 863.404 59.4C863.404 59.784 863.412 60.12 863.428 60.408C863.476 60.904 863.628 61.32 863.884 61.656C864.156 61.976 864.572 62.136 865.132 62.136ZM874.108 72.144C873.068 72.144 872.244 71.856 871.636 71.28C871.044 70.688 870.716 69.904 870.652 68.928C870.636 68.656 870.628 68.304 870.628 67.872C870.628 67.408 870.636 67.032 870.652 66.744C870.716 65.752 871.036 64.968 871.612 64.392C872.204 63.8 873.036 63.504 874.108 63.504C875.196 63.504 876.028 63.8 876.604 64.392C877.196 64.968 877.524 65.752 877.588 66.744C877.62 67.32 877.636 67.696 877.636 67.872C877.636 68.032 877.62 68.384 877.588 68.928C877.524 69.904 877.188 70.688 876.58 71.28C875.972 71.856 875.148 72.144 874.108 72.144ZM874.108 70.56C874.684 70.56 875.1 70.392 875.356 70.056C875.628 69.72 875.788 69.312 875.836 68.832C875.868 68.256 875.884 67.92 875.884 67.824C875.884 67.68 875.868 67.352 875.836 66.84C875.804 66.344 875.652 65.928 875.38 65.592C875.108 65.256 874.684 65.088 874.108 65.088C873.548 65.088 873.132 65.256 872.86 65.592C872.588 65.928 872.436 66.344 872.404 66.84C872.388 67.096 872.38 67.424 872.38 67.824C872.38 68.208 872.388 68.544 872.404 68.832C872.452 69.312 872.604 69.72 872.86 70.056C873.132 70.392 873.548 70.56 874.108 70.56Z" fill="black"/>
</svg>
