<svg width="371" height="418" viewBox="0 0 371 418" fill="none" xmlns="http://www.w3.org/2000/svg">
<path fill-rule="evenodd" clip-rule="evenodd" d="M185.509 244.501C242.596 244.501 288.874 198.029 288.874 140.703C288.874 83.3776 242.596 36.9058 185.509 36.9058C128.422 36.9058 82.1445 83.3776 82.1445 140.703C82.1445 198.029 128.422 244.501 185.509 244.501ZM185.509 281.407C262.893 281.407 325.626 218.412 325.626 140.703C325.626 62.9951 262.893 0 185.509 0C108.125 0 45.3926 62.9951 45.3926 140.703C45.3926 218.412 108.125 281.407 185.509 281.407Z" fill="#D2FB51"/>
<path fill-rule="evenodd" clip-rule="evenodd" d="M2 247.397H45.525V330.195L325.475 330.195V247.396H369V366.994L2 366.994V247.397Z" fill="#D2FB51"/>
<path d="M0.93934 402.939C0.353553 403.525 0.353553 404.475 0.93934 405.061L10.4853 414.607C11.0711 415.192 12.0208 415.192 12.6066 414.607C13.1924 414.021 13.1924 413.071 12.6066 412.485L4.12132 404L12.6066 395.515C13.1924 394.929 13.1924 393.979 12.6066 393.393C12.0208 392.808 11.0711 392.808 10.4853 393.393L0.93934 402.939ZM370.061 405.061C370.646 404.475 370.646 403.525 370.061 402.939L360.515 393.393C359.929 392.808 358.979 392.808 358.393 393.393C357.808 393.979 357.808 394.929 358.393 395.515L366.879 404L358.393 412.485C357.808 413.071 357.808 414.021 358.393 414.607C358.979 415.192 359.929 415.192 360.515 414.607L370.061 405.061ZM2 405.5L369 405.5L369 402.5L2 402.5L2 405.5Z" fill="black"/>
<path d="M0.93934 402.939C0.353553 403.525 0.353553 404.475 0.93934 405.061L10.4853 414.607C11.0711 415.192 12.0208 415.192 12.6066 414.607C13.1924 414.021 13.1924 413.071 12.6066 412.485L4.12132 404L12.6066 395.515C13.1924 394.929 13.1924 393.979 12.6066 393.393C12.0208 392.808 11.0711 392.808 10.4853 393.393L0.93934 402.939ZM370.061 405.061C370.646 404.475 370.646 403.525 370.061 402.939L360.515 393.393C359.929 392.808 358.979 392.808 358.393 393.393C357.808 393.979 357.808 394.929 358.393 395.515L366.879 404L358.393 412.485C357.808 413.071 357.808 414.021 358.393 414.607C358.979 415.192 359.929 415.192 360.515 414.607L370.061 405.061ZM2 405.5L369 405.5L369 402.5L2 402.5L2 405.5Z" fill="white"/>
<mask id="mask0_186_4" style="mask-type:alpha" maskUnits="userSpaceOnUse" x="2" y="330" width="367" height="37">
<rect x="2" y="330" width="367" height="37" fill="#C4C4C4"/>
</mask>
<g mask="url(#mask0_186_4)">
<line x1="8.35355" y1="320.354" x2="-66.6464" y2="395.354" stroke="black"/>
<line x1="20.3536" y1="320.354" x2="-54.6464" y2="395.354" stroke="black"/>
<line x1="32.3536" y1="320.354" x2="-42.6464" y2="395.354" stroke="black"/>
<line x1="44.3536" y1="320.354" x2="-30.6464" y2="395.354" stroke="black"/>
<line x1="56.3536" y1="320.354" x2="-18.6464" y2="395.354" stroke="black"/>
<line x1="68.3536" y1="320.354" x2="-6.64645" y2="395.354" stroke="black"/>
<line x1="80.3536" y1="320.354" x2="5.35355" y2="395.354" stroke="black"/>
<line x1="92.3536" y1="320.354" x2="17.3536" y2="395.354" stroke="black"/>
<line x1="104.354" y1="320.354" x2="29.3536" y2="395.354" stroke="black"/>
<line x1="116.354" y1="320.354" x2="41.3536" y2="395.354" stroke="black"/>
<line x1="128.354" y1="320.354" x2="53.3536" y2="395.354" stroke="black"/>
<line x1="140.354" y1="320.354" x2="65.3536" y2="395.354" stroke="black"/>
<line x1="152.354" y1="320.354" x2="77.3536" y2="395.354" stroke="black"/>
<line x1="164.354" y1="320.354" x2="89.3536" y2="395.354" stroke="black"/>
<line x1="176.354" y1="320.354" x2="101.354" y2="395.354" stroke="black"/>
<line x1="188.354" y1="320.354" x2="113.354" y2="395.354" stroke="black"/>
<line x1="200.354" y1="320.354" x2="125.354" y2="395.354" stroke="black"/>
<line x1="212.354" y1="320.354" x2="137.354" y2="395.354" stroke="black"/>
<line x1="224.354" y1="320.354" x2="149.354" y2="395.354" stroke="black"/>
<line x1="236.354" y1="320.354" x2="161.354" y2="395.354" stroke="black"/>
<line x1="248.354" y1="320.354" x2="173.354" y2="395.354" stroke="black"/>
<line x1="260.354" y1="320.354" x2="185.354" y2="395.354" stroke="black"/>
<line x1="272.354" y1="320.354" x2="197.354" y2="395.354" stroke="black"/>
<line x1="284.354" y1="320.354" x2="209.354" y2="395.354" stroke="black"/>
<line x1="296.354" y1="320.354" x2="221.354" y2="395.354" stroke="black"/>
<line x1="308.354" y1="320.354" x2="233.354" y2="395.354" stroke="black"/>
<line x1="320.354" y1="320.354" x2="245.354" y2="395.354" stroke="black"/>
<line x1="332.354" y1="320.354" x2="257.354" y2="395.354" stroke="black"/>
<line x1="344.354" y1="320.354" x2="269.354" y2="395.354" stroke="black"/>
<line x1="356.354" y1="320.354" x2="281.354" y2="395.354" stroke="black"/>
<line x1="368.354" y1="320.354" x2="293.354" y2="395.354" stroke="black"/>
<line x1="380.354" y1="320.354" x2="305.354" y2="395.354" stroke="black"/>
<line x1="392.354" y1="320.354" x2="317.354" y2="395.354" stroke="black"/>
<line x1="404.354" y1="320.354" x2="329.354" y2="395.354" stroke="black"/>
<line x1="416.354" y1="320.354" x2="341.354" y2="395.354" stroke="black"/>
<line x1="428.354" y1="320.354" x2="353.354" y2="395.354" stroke="black"/>
<line x1="440.354" y1="320.354" x2="365.354" y2="395.354" stroke="black"/>
</g>
</svg>
