<svg width="369" height="430" viewBox="0 0 369 430" fill="none" xmlns="http://www.w3.org/2000/svg">
<path fill-rule="evenodd" clip-rule="evenodd" d="M185.509 244.501C242.596 244.501 288.874 198.029 288.874 140.703C288.874 83.3776 242.596 36.9058 185.509 36.9058C128.422 36.9058 82.1445 83.3776 82.1445 140.703C82.1445 198.029 128.422 244.501 185.509 244.501ZM185.509 281.407C262.893 281.407 325.626 218.412 325.626 140.703C325.626 62.9951 262.893 0 185.509 0C108.125 0 45.3926 62.9951 45.3926 140.703C45.3926 218.412 108.125 281.407 185.509 281.407Z" fill="#D2FB51"/>
<path fill-rule="evenodd" clip-rule="evenodd" d="M2 247.397H45.525V330.195L325.475 330.195V247.396H369V366.994L2 366.994V247.397Z" fill="#D2FB51"/>
<path d="M0.93934 393.939C0.353553 394.525 0.353553 395.475 0.93934 396.061L10.4853 405.607C11.0711 406.192 12.0208 406.192 12.6066 405.607C13.1924 405.021 13.1924 404.071 12.6066 403.485L4.12132 395L12.6066 386.515C13.1924 385.929 13.1924 384.979 12.6066 384.393C12.0208 383.808 11.0711 383.808 10.4853 384.393L0.93934 393.939ZM46.0607 396.061C46.6464 395.475 46.6464 394.525 46.0607 393.939L36.5147 384.393C35.9289 383.808 34.9792 383.808 34.3934 384.393C33.8076 384.979 33.8076 385.929 34.3934 386.515L42.8787 395L34.3934 403.485C33.8076 404.071 33.8076 405.021 34.3934 405.607C34.9792 406.192 35.9289 406.192 36.5147 405.607L46.0607 396.061ZM2 396.5H45V393.5H2V396.5Z" fill="white"/>
<mask id="mask0_186_8" style="mask-type:alpha" maskUnits="userSpaceOnUse" x="2" y="247" width="43" height="120">
<rect x="2" y="247" width="43" height="120" fill="#C4C4C4"/>
</mask>
<g mask="url(#mask0_186_8)">
<line x1="2.45365" y1="247.354" x2="-117.546" y2="367.354" stroke="black"/>
<line x1="21.6538" y1="247.354" x2="-98.3462" y2="367.354" stroke="black"/>
<line x1="40.8536" y1="247.354" x2="-79.1464" y2="367.354" stroke="black"/>
<line x1="60.0537" y1="247.354" x2="-59.9463" y2="367.354" stroke="black"/>
<line x1="79.2539" y1="247.354" x2="-40.7461" y2="367.354" stroke="black"/>
<line x1="98.4537" y1="247.354" x2="-21.5463" y2="367.354" stroke="black"/>
<line x1="117.654" y1="247.354" x2="-2.34615" y2="367.354" stroke="black"/>
<line x1="136.854" y1="247.354" x2="16.8536" y2="367.354" stroke="black"/>
<line x1="156.054" y1="247.354" x2="36.0537" y2="367.354" stroke="black"/>
</g>
</svg>
