<svg width="421" height="369" viewBox="0 0 421 369" fill="none" xmlns="http://www.w3.org/2000/svg">
<path fill-rule="evenodd" clip-rule="evenodd" d="M183.509 244.501C240.596 244.501 286.874 198.029 286.874 140.703C286.874 83.3776 240.596 36.9058 183.509 36.9058C126.422 36.9058 80.1445 83.3776 80.1445 140.703C80.1445 198.029 126.422 244.501 183.509 244.501ZM183.509 281.407C260.893 281.407 323.626 218.412 323.626 140.703C323.626 62.9951 260.893 0 183.509 0C106.125 0 43.3926 62.9951 43.3926 140.703C43.3926 218.412 106.125 281.407 183.509 281.407Z" fill="#D2FB51"/>
<path fill-rule="evenodd" clip-rule="evenodd" d="M0 247.397H43.525V330.195L323.475 330.195V247.396H367V366.994L0 366.994V247.397Z" fill="#D2FB51"/>
<path d="M397.061 245.939C396.475 245.354 395.525 245.354 394.939 245.939L385.393 255.485C384.808 256.071 384.808 257.021 385.393 257.607C385.979 258.192 386.929 258.192 387.515 257.607L396 249.121L404.485 257.607C405.071 258.192 406.021 258.192 406.607 257.607C407.192 257.021 407.192 256.071 406.607 255.485L397.061 245.939ZM394.939 368.061C395.525 368.646 396.475 368.646 397.061 368.061L406.607 358.515C407.192 357.929 407.192 356.979 406.607 356.393C406.021 355.808 405.071 355.808 404.485 356.393L396 364.879L387.515 356.393C386.929 355.808 385.979 355.808 385.393 356.393C384.808 356.979 384.808 357.929 385.393 358.515L394.939 368.061ZM394.5 247L394.5 367L397.5 367L397.5 247L394.5 247Z" fill="white"/>
<mask id="mask0_186_6" style="mask-type:alpha" maskUnits="userSpaceOnUse" x="324" y="247" width="43" height="120">
<rect x="324" y="247" width="43" height="120" fill="#C4C4C4"/>
</mask>
<g mask="url(#mask0_186_6)">
<line x1="324.454" y1="247.354" x2="204.454" y2="367.354" stroke="black"/>
<line x1="343.654" y1="247.354" x2="223.654" y2="367.354" stroke="black"/>
<line x1="362.854" y1="247.354" x2="242.854" y2="367.354" stroke="black"/>
<line x1="382.054" y1="247.354" x2="262.054" y2="367.354" stroke="black"/>
<line x1="401.254" y1="247.354" x2="281.254" y2="367.354" stroke="black"/>
<line x1="420.454" y1="247.354" x2="300.454" y2="367.354" stroke="black"/>
<line x1="439.654" y1="247.354" x2="319.654" y2="367.354" stroke="black"/>
<line x1="458.854" y1="247.354" x2="338.854" y2="367.354" stroke="black"/>
<line x1="478.054" y1="247.354" x2="358.054" y2="367.354" stroke="black"/>
</g>
</svg>
