<svg width="277" height="277" viewBox="0 0 277 277" fill="none" xmlns="http://www.w3.org/2000/svg">
<path fill-rule="evenodd" clip-rule="evenodd" d="M150.956 88.9533L174.909 33.095C196.301 42.5011 213.354 59.9564 222.233 81.6262L139.833 115.575L150.956 88.9533ZM103.81 32.4134L110.43 48.0764L110.264 48.1457L138.564 115.874L70.5653 88.2296C70.5276 88.3222 70.4902 88.4148 70.4529 88.5075L54.73 82.0297C63.7788 59.637 81.539 41.698 103.81 32.4134ZM103.784 199.323L110.486 183.694C110.457 183.682 110.429 183.67 110.4 183.658L138.509 116.387L138.373 116.332L70.6993 143.845C70.6594 143.748 70.6197 143.651 70.5802 143.554L54.8253 149.953C63.8996 172.227 81.603 190.068 103.784 199.323ZM222.139 150.351C213.154 172.107 195.922 189.589 174.338 198.901L165.85 178.821L140.02 117.001L222.139 150.351Z" fill="#D2FB51"/>
<path d="M174.909 33.095L175.111 32.6372L174.649 32.4341L174.45 32.8979L174.909 33.095ZM150.956 88.9532L150.497 88.7562L150.495 88.7604L150.956 88.9532ZM222.233 81.6261L222.424 82.0884L222.885 81.8983L222.696 81.4365L222.233 81.6261ZM139.833 115.575L139.371 115.382L138.905 116.498L140.023 116.038L139.833 115.575ZM110.43 48.0763L110.623 48.5378L111.087 48.3444L110.891 47.8816L110.43 48.0763ZM103.81 32.4133L104.27 32.2187L104.077 31.7604L103.617 31.9518L103.81 32.4133ZM110.264 48.1456L110.072 47.6841L109.61 47.8766L109.803 48.3383L110.264 48.1456ZM138.564 115.874L138.375 116.337L139.488 116.789L139.025 115.681L138.564 115.874ZM70.5652 88.2295L70.7535 87.7664L70.2905 87.5781L70.1021 88.0411L70.5652 88.2295ZM70.4528 88.5074L70.2624 88.9697L70.7286 89.1618L70.9167 88.694L70.4528 88.5074ZM54.73 82.0296L54.2664 81.8423L54.0803 82.3027L54.5395 82.4919L54.73 82.0296ZM103.784 199.323L103.591 199.784L104.048 199.975L104.243 199.52L103.784 199.323ZM110.486 183.694L110.945 183.891L111.145 183.426L110.677 183.232L110.486 183.694ZM110.4 183.658L109.939 183.466L109.746 183.928L110.208 184.12L110.4 183.658ZM138.509 116.387L138.97 116.58L139.165 116.114L138.697 115.924L138.509 116.387ZM138.373 116.332L138.561 115.869L138.373 115.793L138.185 115.869L138.373 116.332ZM70.6992 143.845L70.237 144.035L70.4268 144.495L70.8875 144.308L70.6992 143.845ZM70.5802 143.554L71.0432 143.366L70.8547 142.903L70.392 143.091L70.5802 143.554ZM54.8253 149.953L54.6372 149.489L54.1734 149.678L54.3623 150.141L54.8253 149.953ZM174.338 198.901L173.878 199.096L174.074 199.56L174.536 199.36L174.338 198.901ZM222.139 150.351L222.601 150.542L222.793 150.077L222.327 149.887L222.139 150.351ZM165.85 178.821L165.389 179.014L165.39 179.015L165.85 178.821ZM140.02 117.001L140.208 116.538L139.095 116.086L139.558 117.194L140.02 117.001ZM174.45 32.8979L150.497 88.7562L151.416 89.1503L175.369 33.292L174.45 32.8979ZM222.696 81.4365C213.768 59.6466 196.621 42.0954 175.111 32.6372L174.708 33.5527C195.982 42.9067 212.941 60.2659 221.771 81.8157L222.696 81.4365ZM140.023 116.038L222.424 82.0884L222.043 81.1638L139.642 115.113L140.023 116.038ZM150.495 88.7604L139.371 115.382L140.294 115.768L151.418 89.146L150.495 88.7604ZM110.891 47.8816L104.27 32.2187L103.349 32.608L109.97 48.2709L110.891 47.8816ZM110.457 48.6071L110.623 48.5378L110.238 47.6148L110.072 47.6841L110.457 48.6071ZM139.025 115.681L110.726 47.9528L109.803 48.3383L138.102 116.067L139.025 115.681ZM70.3769 88.6927L138.375 116.337L138.752 115.411L70.7535 87.7664L70.3769 88.6927ZM70.9167 88.694C70.9537 88.6019 70.991 88.5099 71.0284 88.418L70.1021 88.0411C70.0642 88.1343 70.0265 88.2275 69.9889 88.3209L70.9167 88.694ZM54.5395 82.4919L70.2624 88.9697L70.6433 88.0451L54.9204 81.5673L54.5395 82.4919ZM103.617 31.9518C81.2232 41.2878 63.3653 59.3255 54.2664 81.8423L55.1936 82.217C64.1921 59.9483 81.8546 42.108 104.002 32.8748L103.617 31.9518ZM104.243 199.52L110.945 183.891L110.026 183.497L103.324 199.126L104.243 199.52ZM110.677 183.232C110.649 183.22 110.62 183.208 110.592 183.197L110.208 184.12C110.237 184.132 110.266 184.144 110.294 184.156L110.677 183.232ZM110.861 183.851L138.97 116.58L138.047 116.194L109.939 183.466L110.861 183.851ZM138.697 115.924L138.561 115.869L138.185 116.796L138.32 116.85L138.697 115.924ZM138.185 115.869L70.5109 143.381L70.8875 144.308L138.562 116.796L138.185 115.869ZM71.1614 143.654C71.1218 143.558 71.0824 143.462 71.0432 143.366L70.1171 143.743C70.1569 143.841 70.1969 143.938 70.237 144.035L71.1614 143.654ZM70.392 143.091L54.6372 149.489L55.0134 150.416L70.7683 144.018L70.392 143.091ZM54.3623 150.141C63.4867 172.539 81.2876 190.478 103.591 199.784L103.976 198.862C81.9184 189.658 64.3123 171.915 55.2884 149.764L54.3623 150.141ZM174.536 199.36C196.239 189.996 213.567 172.418 222.601 150.542L221.677 150.16C212.742 171.795 195.604 189.181 174.14 198.442L174.536 199.36ZM165.39 179.015L173.878 199.096L174.799 198.706L166.311 178.626L165.39 179.015ZM139.558 117.194L165.389 179.014L166.312 178.628L140.481 116.808L139.558 117.194ZM222.327 149.887L140.208 116.538L139.831 117.464L221.951 150.814L222.327 149.887Z" fill="#D2FB51"/>
<path fill-rule="evenodd" clip-rule="evenodd" d="M138.305 200.673C185.116 200.673 223.064 162.532 223.064 115.482C223.064 68.4318 185.116 30.2903 138.305 30.2903C91.4932 30.2903 53.545 68.4318 53.545 115.482C53.545 162.532 91.4932 200.673 138.305 200.673ZM138.305 230.963C201.76 230.963 253.201 179.26 253.201 115.482C253.201 51.7029 201.76 0 138.305 0C74.8491 0 23.4082 51.7029 23.4082 115.482C23.4082 179.26 74.8491 230.963 138.305 230.963Z" fill="#D2FB51"/>
<path fill-rule="evenodd" clip-rule="evenodd" d="M0 188.048H32.8513V249.63L244.149 249.63V188.048H277V277L0 277V188.048Z" fill="#D2FB51"/>
</svg>
