<svg width="389" height="389" viewBox="0 0 389 389" fill="none" xmlns="http://www.w3.org/2000/svg">
<rect x="56" y="56" width="277" height="277" stroke="white"/>
<rect x="1" y="1" width="387" height="387" stroke="white"/>
<rect x="1" y="1" width="55" height="55" stroke="white"/>
<rect x="1" y="333" width="55" height="55" stroke="white"/>
<rect x="1" y="333" width="55" height="55" stroke="white"/>
<rect x="333" y="333" width="55" height="55" stroke="white"/>
<rect x="333" y="1" width="55" height="55" stroke="white"/>
<path fill-rule="evenodd" clip-rule="evenodd" d="M194.2 240.099C237.468 240.099 272.544 205.108 272.544 161.944C272.544 118.78 237.468 83.7886 194.2 83.7886C150.932 83.7886 115.856 118.78 115.856 161.944C115.856 205.108 150.932 240.099 194.2 240.099ZM194.2 267.888C252.853 267.888 300.4 220.455 300.4 161.944C300.4 103.433 252.853 56 194.2 56C135.547 56 88 103.433 88 161.944C88 220.455 135.547 267.888 194.2 267.888Z" fill="white"/>
<path fill-rule="evenodd" clip-rule="evenodd" d="M56 242.948H88.8513V305.292L300.149 305.292V242.948H333V333L56 333V242.948Z" fill="white"/>
<path d="M19.62 44C19.428 44 19.248 43.928 19.08 43.784C18.936 43.64 18.864 43.472 18.864 43.28C18.864 43.112 18.912 42.956 19.008 42.812L27.252 31.184L19.404 19.988C19.332 19.868 19.296 19.712 19.296 19.52C19.296 19.328 19.368 19.16 19.512 19.016C19.656 18.872 19.824 18.8 20.016 18.8H22.176C22.536 18.8 22.86 19.004 23.148 19.412L29.484 28.412L35.784 19.412C36.024 19.004 36.336 18.8 36.72 18.8H38.772C38.964 18.8 39.132 18.872 39.276 19.016C39.42 19.16 39.492 19.328 39.492 19.52C39.492 19.736 39.444 19.892 39.348 19.988L31.608 31.22L39.816 42.812C39.912 42.956 39.96 43.112 39.96 43.28C39.96 43.472 39.888 43.64 39.744 43.784C39.6 43.928 39.42 44 39.204 44H37.008C36.648 44 36.324 43.796 36.036 43.388L29.34 34.064L22.68 43.388C22.44 43.796 22.128 44 21.744 44H19.62Z" fill="white"/>
<path d="M17.512 205.36C15.688 205.36 14.116 205.036 12.796 204.388C11.476 203.74 10.456 202.888 9.736 201.832C9.04 200.776 8.668 199.648 8.62 198.448V198.376C8.62 198.184 8.692 198.028 8.836 197.908C8.98 197.788 9.148 197.728 9.34 197.728H11.284C11.788 197.728 12.112 197.992 12.256 198.52C12.592 199.792 13.24 200.74 14.2 201.364C15.16 201.988 16.264 202.3 17.512 202.3C19.12 202.3 20.452 201.82 21.508 200.86C22.588 199.876 23.128 198.52 23.128 196.792C23.128 195.232 22.588 193.972 21.508 193.012C20.452 192.052 19.12 191.572 17.512 191.572C16.648 191.572 15.952 191.692 15.424 191.932C14.896 192.148 14.368 192.46 13.84 192.868C13.552 193.084 13.3 193.252 13.084 193.372C12.892 193.468 12.676 193.516 12.436 193.516H10.564C10.348 193.516 10.156 193.444 9.988 193.3C9.82 193.132 9.748 192.94 9.772 192.724L10.924 180.7C10.948 180.412 11.032 180.196 11.176 180.052C11.344 179.884 11.56 179.8 11.824 179.8H24.388C24.628 179.8 24.82 179.884 24.964 180.052C25.132 180.196 25.216 180.388 25.216 180.628V182.032C25.216 182.272 25.132 182.476 24.964 182.644C24.82 182.788 24.628 182.86 24.388 182.86H14.02L13.336 189.952C14.632 189.136 16.192 188.728 18.016 188.728C19.6 188.728 21.052 189.052 22.372 189.7C23.716 190.348 24.772 191.284 25.54 192.508C26.332 193.732 26.728 195.172 26.728 196.828C26.728 198.604 26.332 200.14 25.54 201.436C24.772 202.708 23.692 203.68 22.3 204.352C20.908 205.024 19.312 205.36 17.512 205.36ZM29.995 205C29.803 205 29.623 204.928 29.455 204.784C29.311 204.64 29.239 204.472 29.239 204.28C29.239 204.112 29.287 203.956 29.383 203.812L37.627 192.184L29.779 180.988C29.707 180.868 29.671 180.712 29.671 180.52C29.671 180.328 29.743 180.16 29.887 180.016C30.031 179.872 30.199 179.8 30.391 179.8H32.551C32.911 179.8 33.235 180.004 33.523 180.412L39.859 189.412L46.159 180.412C46.399 180.004 46.711 179.8 47.095 179.8H49.147C49.339 179.8 49.507 179.872 49.651 180.016C49.795 180.16 49.867 180.328 49.867 180.52C49.867 180.736 49.819 180.892 49.723 180.988L41.983 192.22L50.191 203.812C50.287 203.956 50.335 204.112 50.335 204.28C50.335 204.472 50.263 204.64 50.119 204.784C49.975 204.928 49.795 205 49.579 205H47.383C47.023 205 46.699 204.796 46.411 204.388L39.715 195.064L33.055 204.388C32.815 204.796 32.503 205 32.119 205H29.995Z" fill="white"/>
</svg>
