<svg width="863" height="389" viewBox="0 0 863 389" fill="none" xmlns="http://www.w3.org/2000/svg">
<rect y="1" width="387" height="387" fill="white"/>
<path fill-rule="evenodd" clip-rule="evenodd" d="M193.2 240.099C236.468 240.099 271.544 205.108 271.544 161.944C271.544 118.78 236.468 83.7886 193.2 83.7886C149.932 83.7886 114.856 118.78 114.856 161.944C114.856 205.108 149.932 240.099 193.2 240.099ZM193.2 267.888C251.853 267.888 299.4 220.455 299.4 161.944C299.4 103.433 251.853 56 193.2 56C134.547 56 87 103.433 87 161.944C87 220.455 134.547 267.888 193.2 267.888Z" fill="black"/>
<path fill-rule="evenodd" clip-rule="evenodd" d="M55 242.948H87.8513V305.292L299.149 305.292V242.948H332V333L55 333V242.948Z" fill="black"/>
<rect x="475" y="1" width="387" height="387" fill="black" stroke="white"/>
<path d="M668.2 240.599C711.743 240.599 747.044 205.385 747.044 161.944C747.044 118.503 711.743 83.2886 668.2 83.2886C624.657 83.2886 589.356 118.503 589.356 161.944C589.356 205.385 624.657 240.599 668.2 240.599ZM773.9 161.944C773.9 220.178 726.578 267.388 668.2 267.388C609.822 267.388 562.5 220.178 562.5 161.944C562.5 103.71 609.822 56.5 668.2 56.5C726.578 56.5 773.9 103.71 773.9 161.944Z" fill="#D2FB51" stroke="white"/>
<path fill-rule="evenodd" clip-rule="evenodd" d="M530 242.948H562.851V305.292L774.149 305.292V242.948H807V333L530 333V242.948Z" fill="#D2FB51" stroke="white"/>
</svg>
