<svg width="442" height="190" viewBox="0 0 442 190" fill="none" xmlns="http://www.w3.org/2000/svg">
<rect y="83" width="24" height="24" fill="black"/>
<path fill-rule="evenodd" clip-rule="evenodd" d="M11.9816 97.8281C14.6649 97.8281 16.8401 95.6581 16.8401 92.9813C16.8401 90.3045 14.6649 88.1345 11.9816 88.1345C9.29825 88.1345 7.123 90.3045 7.123 92.9813C7.123 95.6581 9.29825 97.8281 11.9816 97.8281ZM11.9816 99.5515C15.6189 99.5515 18.5676 96.6099 18.5676 92.9813C18.5676 89.3527 15.6189 86.4111 11.9816 86.4111C8.34418 86.4111 5.39551 89.3527 5.39551 92.9813C5.39551 96.6099 8.34418 99.5515 11.9816 99.5515Z" fill="#D2FB51"/>
<path fill-rule="evenodd" clip-rule="evenodd" d="M3.41113 98.0054H5.44842V101.872L18.5521 101.872V98.0054H20.5894V103.59L3.41113 103.59V98.0054Z" fill="#D2FB51"/>
<rect x="87" y="44" width="102" height="102" fill="black"/>
<path fill-rule="evenodd" clip-rule="evenodd" d="M137.921 107.02C149.325 107.02 158.57 97.7973 158.57 86.4208C158.57 75.0442 149.325 65.8217 137.921 65.8217C126.517 65.8217 117.272 75.0442 117.272 86.4208C117.272 97.7973 126.517 107.02 137.921 107.02ZM137.921 114.344C153.38 114.344 165.912 101.842 165.912 86.4208C165.912 70.9992 153.38 58.4976 137.921 58.4976C122.462 58.4976 109.93 70.9992 109.93 86.4208C109.93 101.842 122.462 114.344 137.921 114.344Z" fill="#D2FB51"/>
<path fill-rule="evenodd" clip-rule="evenodd" d="M101.496 107.775H110.155V124.207L165.845 124.207V107.775H174.504V131.51L101.496 131.51V107.775Z" fill="#D2FB51"/>
<rect x="252" width="190" height="190" fill="black"/>
<path fill-rule="evenodd" clip-rule="evenodd" d="M346.853 117.391C368.096 117.391 385.316 100.212 385.316 79.0202C385.316 57.8285 368.096 40.6493 346.853 40.6493C325.61 40.6493 308.389 57.8285 308.389 79.0202C308.389 100.212 325.61 117.391 346.853 117.391ZM346.853 131.034C375.649 131.034 398.992 107.747 398.992 79.0202C398.992 50.2937 375.649 27.0063 346.853 27.0063C318.057 27.0063 294.713 50.2937 294.713 79.0202C294.713 107.747 318.057 131.034 346.853 131.034Z" fill="#D2FB51"/>
<path fill-rule="evenodd" clip-rule="evenodd" d="M279.003 118.797H295.131V149.406L398.869 149.405V118.797H414.998V163.009L279.003 163.009V118.797Z" fill="#D2FB51"/>
</svg>
