<svg width="277" height="277" viewBox="0 0 277 277" fill="none" xmlns="http://www.w3.org/2000/svg">
<path fill-rule="evenodd" clip-rule="evenodd" d="M138.304 0.390137C138.305 0.519127 138.305 0.648168 138.305 0.777258C138.305 0.648168 138.306 0.519127 138.306 0.390137H138.304ZM138.305 0.97588C138.252 64.4924 86.8762 115.997 23.4087 116.259V116.261C86.7471 116.523 138.043 167.818 138.304 231.157H138.306C138.568 167.818 189.863 116.523 253.202 116.261V116.259C189.734 115.997 138.359 64.4924 138.305 0.97588Z" fill="#D2FB51"/>
<path fill-rule="evenodd" clip-rule="evenodd" d="M138.305 200.673C185.117 200.673 223.065 162.532 223.065 115.482C223.065 68.4318 185.117 30.2903 138.305 30.2903C91.4937 30.2903 53.5455 68.4318 53.5455 115.482C53.5455 162.532 91.4937 200.673 138.305 200.673ZM138.305 230.963C201.761 230.963 253.202 179.26 253.202 115.482C253.202 51.7029 201.761 0 138.305 0C74.8496 0 23.4087 51.7029 23.4087 115.482C23.4087 179.26 74.8496 230.963 138.305 230.963Z" fill="#D2FB51"/>
<path fill-rule="evenodd" clip-rule="evenodd" d="M0 188.048H32.8513V249.63L244.149 249.63V188.048H277V277L0 277V188.048Z" fill="#D2FB51"/>
</svg>
