<svg width="277" height="277" viewBox="0 0 277 277" fill="none" xmlns="http://www.w3.org/2000/svg">
<path d="M50.2144 113.489L137.687 26.0483V113.489H227.733L137.687 202.859V113.489H50.2144Z" fill="#D2FB51"/>
<path fill-rule="evenodd" clip-rule="evenodd" d="M138.305 200.673C185.117 200.673 223.065 162.532 223.065 115.482C223.065 68.4318 185.117 30.2903 138.305 30.2903C91.4937 30.2903 53.5455 68.4318 53.5455 115.482C53.5455 162.532 91.4937 200.673 138.305 200.673ZM138.305 230.963C201.761 230.963 253.202 179.26 253.202 115.482C253.202 51.7029 201.761 0 138.305 0C74.8496 0 23.4087 51.7029 23.4087 115.482C23.4087 179.26 74.8496 230.963 138.305 230.963Z" fill="#D2FB51"/>
<path fill-rule="evenodd" clip-rule="evenodd" d="M0 188.048H32.8513V249.63L244.149 249.63V188.048H277V277L0 277V188.048Z" fill="#D2FB51"/>
</svg>
