<svg width="633" height="144" viewBox="0 0 633 144" fill="none" xmlns="http://www.w3.org/2000/svg">
<g opacity="0.3">
<path fill-rule="evenodd" clip-rule="evenodd" d="M71.8976 0.202637C71.8979 0.272552 71.8981 0.342495 71.8981 0.412466C71.8982 0.342495 71.8983 0.272552 71.8986 0.202637H71.8976ZM71.8981 0.498902C71.8748 33.522 45.1655 60.3013 12.1689 60.4378V60.4391C45.0955 60.5753 71.7615 87.2414 71.8976 120.168H71.8986C72.0347 87.2411 98.7012 60.5749 131.628 60.4391V60.4378C98.6312 60.3017 71.9214 33.5223 71.8981 0.498902Z" fill="black"/>
<path fill-rule="evenodd" clip-rule="evenodd" d="M71.8985 104.321C96.2337 104.321 115.961 84.493 115.961 60.0338C115.961 35.5746 96.2337 15.7466 71.8985 15.7466C47.5633 15.7466 27.8357 35.5746 27.8357 60.0338C27.8357 84.493 47.5633 104.321 71.8985 104.321ZM71.8985 120.068C104.886 120.068 131.628 93.1896 131.628 60.0338C131.628 26.878 104.886 0 71.8985 0C38.9108 0 12.1689 26.878 12.1689 60.0338C12.1689 93.1896 38.9108 120.068 71.8985 120.068Z" fill="black"/>
<path fill-rule="evenodd" clip-rule="evenodd" d="M0 97.7578H17.0779V129.772L126.922 129.772V97.7578H144V144L0 144V97.7578Z" fill="black"/>
</g>
<path fill-rule="evenodd" clip-rule="evenodd" d="M234.899 120.068C267.886 120.068 294.628 93.1896 294.628 60.0338C294.628 26.878 267.886 0 234.899 0C201.911 0 175.169 26.878 175.169 60.0338C175.169 93.1896 201.911 120.068 234.899 120.068Z" fill="black"/>
<path fill-rule="evenodd" clip-rule="evenodd" d="M163 97.7578H180.078V129.772L289.922 129.772V97.7578H307V144L163 144V97.7578Z" fill="black"/>
<g opacity="0.3">
<path fill-rule="evenodd" clip-rule="evenodd" d="M404.438 46.331L416.928 17.2051C428.049 22.095 436.913 31.1692 441.529 42.4343L398.692 60.0833L404.438 46.331ZM379.966 16.8506L386.587 32.5136L386.469 32.5626L398.033 60.2378L370.247 48.9418C370.223 49.0017 370.199 49.0618 370.175 49.1219L354.452 42.644C359.156 31.003 368.389 21.6772 379.966 16.8506ZM379.953 103.62L386.655 87.9903C386.616 87.9745 386.578 87.9586 386.539 87.9426L398.004 60.5047L397.934 60.4762L370.317 71.7036C370.296 71.6544 370.276 71.6052 370.256 71.5558L354.501 77.9541C359.219 89.5337 368.422 98.8083 379.953 103.62ZM441.48 78.161C436.809 89.4708 427.851 98.5591 416.631 103.4L410.01 87.7369C410.017 87.7339 410.024 87.7308 410.031 87.7278L398.789 60.8237L441.48 78.161Z" fill="black"/>
<path d="M416.928 17.2051L417.129 16.7474L416.667 16.5443L416.468 17.0081L416.928 17.2051ZM404.438 46.331L403.979 46.1339L403.977 46.1382L404.438 46.331ZM441.529 42.4343L441.72 42.8966L442.181 42.7065L441.992 42.2448L441.529 42.4343ZM398.692 60.0833L398.231 59.8906L397.764 61.0063L398.882 60.5456L398.692 60.0833ZM386.587 32.5136L386.779 32.9753L387.243 32.7822L387.047 32.3189L386.587 32.5136ZM379.966 16.8506L380.427 16.6559L380.233 16.1976L379.774 16.3891L379.966 16.8506ZM386.469 32.5626L386.277 32.101L385.815 32.2933L386.008 32.7554L386.469 32.5626ZM398.033 60.2378L397.844 60.7009L398.957 61.1533L398.494 60.045L398.033 60.2378ZM370.247 48.9418L370.436 48.4786L369.973 48.2903L369.784 48.7533L370.247 48.9418ZM370.175 49.1219L369.984 49.5842L370.452 49.7767L370.639 49.3073L370.175 49.1219ZM354.452 42.644L353.988 42.4567L353.802 42.9171L354.261 43.1063L354.452 42.644ZM379.953 103.62L379.76 104.081L380.217 104.272L380.412 103.817L379.953 103.62ZM386.655 87.9903L387.114 88.1874L387.315 87.7206L386.845 87.5277L386.655 87.9903ZM386.539 87.9426L386.078 87.7498L385.885 88.2122L386.348 88.4044L386.539 87.9426ZM398.004 60.5047L398.465 60.6975L398.66 60.2315L398.192 60.0415L398.004 60.5047ZM397.934 60.4762L398.122 60.0129L397.934 59.9365L397.745 60.013L397.934 60.4762ZM370.317 71.7036L369.855 71.8949L370.045 72.3539L370.505 72.1668L370.317 71.7036ZM370.256 71.5558L370.719 71.367L370.531 70.9047L370.068 71.0926L370.256 71.5558ZM354.501 77.9541L354.313 77.4909L353.849 77.6792L354.038 78.1427L354.501 77.9541ZM416.631 103.4L416.17 103.595L416.366 104.059L416.829 103.859L416.631 103.4ZM441.48 78.161L441.942 78.3518L442.134 77.887L441.668 77.6977L441.48 78.161ZM410.01 87.7369L409.81 87.2786L409.357 87.4762L409.55 87.9316L410.01 87.7369ZM410.031 87.7278L410.231 88.1859L410.682 87.9888L410.492 87.535L410.031 87.7278ZM398.789 60.8237L398.978 60.3604L397.865 59.9087L398.328 61.0165L398.789 60.8237ZM416.468 17.0081L403.979 46.134L404.898 46.5281L417.387 17.4022L416.468 17.0081ZM441.992 42.2448C437.327 30.8595 428.368 21.6893 417.129 16.7474L416.727 17.6628C427.729 22.5007 436.5 31.4788 441.067 42.6239L441.992 42.2448ZM398.882 60.5456L441.72 42.8966L441.339 41.972L398.501 59.621L398.882 60.5456ZM403.977 46.1382L398.231 59.8906L399.153 60.2761L404.9 46.5238L403.977 46.1382ZM387.047 32.3189L380.427 16.6559L379.506 17.0453L386.126 32.7083L387.047 32.3189ZM386.661 33.0243L386.779 32.9753L386.395 32.0519L386.277 32.101L386.661 33.0243ZM398.494 60.045L386.93 32.3699L386.008 32.7554L397.571 60.4305L398.494 60.045ZM370.059 49.405L397.844 60.7009L398.221 59.7746L370.436 48.4786L370.059 49.405ZM370.639 49.3073C370.663 49.2482 370.686 49.1892 370.71 49.1302L369.784 48.7533C369.759 48.8142 369.735 48.8753 369.71 48.9364L370.639 49.3073ZM354.261 43.1063L369.984 49.5842L370.365 48.6596L354.642 42.1817L354.261 43.1063ZM379.774 16.3891C368.073 21.2671 358.742 30.6916 353.988 42.4567L354.915 42.8314C359.569 31.3144 368.704 22.0873 380.159 17.3121L379.774 16.3891ZM380.412 103.817L387.114 88.1874L386.195 87.7932L379.493 103.423L380.412 103.817ZM386.845 87.5277C386.807 87.5122 386.769 87.4966 386.731 87.4809L386.348 88.4044C386.387 88.4206 386.426 88.4368 386.465 88.4529L386.845 87.5277ZM387.001 88.1354L398.465 60.6975L397.543 60.312L386.078 87.7498L387.001 88.1354ZM398.192 60.0415L398.122 60.0129L397.746 60.9394L397.816 60.968L398.192 60.0415ZM397.745 60.013L370.129 71.2404L370.505 72.1668L398.122 60.9394L397.745 60.013ZM370.779 71.5123C370.759 71.4639 370.739 71.4155 370.719 71.367L369.793 71.7447C369.814 71.7948 369.834 71.8449 369.855 71.8949L370.779 71.5123ZM370.068 71.0926L354.313 77.4909L354.689 78.4174L370.444 72.0191L370.068 71.0926ZM354.038 78.1427C358.806 89.8457 368.107 99.2185 379.76 104.081L380.145 103.158C368.737 98.3981 359.631 89.2216 354.964 77.7655L354.038 78.1427ZM416.829 103.859C428.169 98.9667 437.222 89.7822 441.942 78.3518L441.018 77.9701C436.397 89.1595 427.534 98.1516 416.433 102.941L416.829 103.859ZM409.55 87.9316L416.17 103.595L417.091 103.206L410.471 87.5423L409.55 87.9316ZM409.831 87.2697C409.824 87.2726 409.817 87.2756 409.81 87.2786L410.21 88.1953C410.217 88.1922 410.224 88.1891 410.231 88.1859L409.831 87.2697ZM398.328 61.0165L409.57 87.9205L410.492 87.535L399.251 60.6309L398.328 61.0165ZM441.668 77.6977L398.978 60.3604L398.601 61.2869L441.292 78.6242L441.668 77.6977Z" fill="white"/>
<path fill-rule="evenodd" clip-rule="evenodd" d="M397.899 104.321C422.234 104.321 441.961 84.493 441.961 60.0338C441.961 35.5746 422.234 15.7466 397.899 15.7466C373.563 15.7466 353.836 35.5746 353.836 60.0338C353.836 84.493 373.563 104.321 397.899 104.321ZM397.899 120.068C430.886 120.068 457.628 93.1896 457.628 60.0338C457.628 26.878 430.886 0 397.899 0C364.911 0 338.169 26.878 338.169 60.0338C338.169 93.1896 364.911 120.068 397.899 120.068Z" fill="black"/>
<path fill-rule="evenodd" clip-rule="evenodd" d="M326 97.7578H343.078V129.772L452.922 129.772V97.7578H470V144L326 144V97.7578Z" fill="black"/>
</g>
<g opacity="0.3">
<path d="M515.104 58.9982L560.577 13.5415V58.9982H607.388L560.577 105.458V58.9982H515.104Z" fill="black"/>
<path fill-rule="evenodd" clip-rule="evenodd" d="M560.899 104.321C585.234 104.321 604.961 84.493 604.961 60.0338C604.961 35.5746 585.234 15.7466 560.899 15.7466C536.563 15.7466 516.836 35.5746 516.836 60.0338C516.836 84.493 536.563 104.321 560.899 104.321ZM560.899 120.068C593.886 120.068 620.628 93.1895 620.628 60.0338C620.628 26.878 593.886 0 560.899 0C527.911 0 501.169 26.878 501.169 60.0338C501.169 93.1895 527.911 120.068 560.899 120.068Z" fill="black"/>
<path fill-rule="evenodd" clip-rule="evenodd" d="M489 97.7578H506.078V129.772L615.922 129.772V97.7578H633V144L489 144V97.7578Z" fill="black"/>
</g>
</svg>
