<svg width="34" height="34" viewBox="0 0 34 34" fill="none" xmlns="http://www.w3.org/2000/svg">
<path fill-rule="evenodd" clip-rule="evenodd" d="M16.9759 24.6314C22.7217 24.6314 27.3796 19.9497 27.3796 14.1746C27.3796 8.39957 22.7217 3.71794 16.9759 3.71794C11.23 3.71794 6.57215 8.39957 6.57215 14.1746C6.57215 19.9497 11.23 24.6314 16.9759 24.6314ZM16.9759 28.3493C24.7646 28.3493 31.0787 22.0031 31.0787 14.1746C31.0787 6.34621 24.7646 0 16.9759 0C9.18709 0 2.87305 6.34621 2.87305 14.1746C2.87305 22.0031 9.18709 28.3493 16.9759 28.3493Z" fill="white"/>
<path fill-rule="evenodd" clip-rule="evenodd" d="M0 23.082H4.03229V30.6409L29.9677 30.6409V23.082H34V34.0003L0 34.0003V23.082Z" fill="white"/>
</svg>
