<svg width="1163" height="583" viewBox="0 0 1163 583" fill="none" xmlns="http://www.w3.org/2000/svg">
<path fill-rule="evenodd" clip-rule="evenodd" d="M145.898 293.467C226.474 293.467 291.795 227.772 291.795 146.734C291.795 65.6949 226.474 0 145.898 0C65.3205 0 0 65.6949 0 146.734C0 227.772 65.3205 293.467 145.898 293.467Z" fill="white"/>
<path fill-rule="evenodd" clip-rule="evenodd" d="M145.898 582.753C226.474 582.753 291.795 517.058 291.795 436.02C291.795 354.981 226.474 289.286 145.898 289.286C65.3205 289.286 0 354.981 0 436.02C0 517.058 65.3205 582.753 145.898 582.753Z" fill="white"/>
<path fill-rule="evenodd" clip-rule="evenodd" d="M434.348 293.467C514.925 293.467 580.246 227.772 580.246 146.734C580.246 65.6949 514.925 0 434.348 0C353.771 0 288.451 65.6949 288.451 146.734C288.451 227.772 353.771 293.467 434.348 293.467Z" fill="white"/>
<path fill-rule="evenodd" clip-rule="evenodd" d="M434.348 582.753C514.925 582.753 580.246 517.058 580.246 436.02C580.246 354.981 514.925 289.286 434.348 289.286C353.771 289.286 288.451 354.981 288.451 436.02C288.451 517.058 353.771 582.753 434.348 582.753Z" fill="white"/>
<path fill-rule="evenodd" clip-rule="evenodd" d="M727.816 293.467C808.393 293.467 873.713 227.772 873.713 146.734C873.713 65.6949 808.393 0 727.816 0C647.239 0 581.918 65.6949 581.918 146.734C581.918 227.772 647.239 293.467 727.816 293.467Z" fill="white"/>
<path fill-rule="evenodd" clip-rule="evenodd" d="M727.816 582.753C808.393 582.753 873.713 517.058 873.713 436.02C873.713 354.981 808.393 289.286 727.816 289.286C647.239 289.286 581.918 354.981 581.918 436.02C581.918 517.058 647.239 582.753 727.816 582.753Z" fill="white"/>
<path fill-rule="evenodd" clip-rule="evenodd" d="M1017.1 293.467C1097.68 293.467 1163 227.772 1163 146.734C1163 65.6949 1097.68 0 1017.1 0C936.526 0 871.205 65.6949 871.205 146.734C871.205 227.772 936.526 293.467 1017.1 293.467Z" fill="white"/>
<path fill-rule="evenodd" clip-rule="evenodd" d="M1017.1 582.753C1097.68 582.753 1163 517.058 1163 436.02C1163 354.981 1097.68 289.286 1017.1 289.286C936.526 289.286 871.205 354.981 871.205 436.02C871.205 517.058 936.526 582.753 1017.1 582.753Z" fill="white"/>
<rect x="147.152" y="148.823" width="876.221" height="289.287" fill="white"/>
</svg>
