<svg width="1163" height="294" viewBox="0 0 1163 294" fill="none" xmlns="http://www.w3.org/2000/svg">
<path fill-rule="evenodd" clip-rule="evenodd" d="M145.898 293.467C226.474 293.467 291.795 227.772 291.795 146.734C291.795 65.6949 226.474 0 145.898 0C65.3205 0 0 65.6949 0 146.734C0 227.772 65.3205 293.467 145.898 293.467Z" fill="white"/>
<path fill-rule="evenodd" clip-rule="evenodd" d="M434.348 293.467C514.925 293.467 580.245 227.772 580.245 146.734C580.245 65.6949 514.925 0 434.348 0C353.771 0 288.45 65.6949 288.45 146.734C288.45 227.772 353.771 293.467 434.348 293.467Z" fill="white"/>
<path fill-rule="evenodd" clip-rule="evenodd" d="M727.816 293.467C808.393 293.467 873.713 227.772 873.713 146.734C873.713 65.6949 808.393 0 727.816 0C647.239 0 581.918 65.6949 581.918 146.734C581.918 227.772 647.239 293.467 727.816 293.467Z" fill="white"/>
<path fill-rule="evenodd" clip-rule="evenodd" d="M1017.1 293.467C1097.68 293.467 1163 227.772 1163 146.734C1163 65.6949 1097.68 0 1017.1 0C936.525 0 871.205 65.6949 871.205 146.734C871.205 227.772 936.525 293.467 1017.1 293.467Z" fill="white"/>
</svg>
