<svg width="18" height="17" viewBox="0 0 18 17" fill="none" xmlns="http://www.w3.org/2000/svg">
<path fill-rule="evenodd" clip-rule="evenodd" d="M9.00013 11.9918C11.8 11.9918 14.0698 9.71257 14.0698 6.90096C14.0698 4.08935 11.8 1.81009 9.00013 1.81009C6.20024 1.81009 3.93048 4.08935 3.93048 6.90096C3.93048 9.71257 6.20024 11.9918 9.00013 11.9918ZM9.00013 13.8019C12.7955 13.8019 15.8723 10.7123 15.8723 6.90096C15.8723 3.08966 12.7955 0 9.00013 0C5.20472 0 2.12793 3.08966 2.12793 6.90096C2.12793 10.7123 5.20472 13.8019 9.00013 13.8019Z" fill="#D2FB51"/>
<path fill-rule="evenodd" clip-rule="evenodd" d="M0 10.7393H2.13474V14.8002L15.8653 14.8002V10.7393H18V16.6051L0 16.6051V10.7393Z" fill="#D2FB51"/>
</svg>
