<svg width="33" height="31" viewBox="0 0 33 31" fill="none" xmlns="http://www.w3.org/2000/svg">
<path fill-rule="evenodd" clip-rule="evenodd" d="M16.0984 22.099C21.1068 22.099 25.1668 18.0219 25.1668 12.9926C25.1668 7.96332 21.1068 3.88626 16.0984 3.88626C11.0901 3.88626 7.02999 7.96332 7.02999 12.9926C7.02999 18.0219 11.0901 22.099 16.0984 22.099ZM16.0984 25.3368C22.8875 25.3368 28.3912 19.8101 28.3912 12.9926C28.3912 6.17512 22.8875 0.648438 16.0984 0.648438C9.30932 0.648438 3.80566 6.17512 3.80566 12.9926C3.80566 19.8101 9.30932 25.3368 16.0984 25.3368Z" fill="black"/>
<path fill-rule="evenodd" clip-rule="evenodd" d="M0 19.8584H3.81855V27.1225L28.3792 27.1225V19.8584H32.1978V30.351L0 30.351V19.8584Z" fill="black"/>
</svg>
