<svg width="1163" height="1168" viewBox="0 0 1163 1168" fill="none" xmlns="http://www.w3.org/2000/svg">
<path d="M811.248 0.331055C811.249 0.450676 811.249 0.570339 811.249 0.690042C811.25 0.570339 811.25 0.450676 811.25 0.331055H811.248Z" fill="#D2FB51"/>
<path d="M811.249 0.990276C811.169 67.3384 757.487 121.131 691.175 121.404C757.368 121.677 810.975 175.278 811.248 241.461H811.25C811.523 175.279 865.13 121.679 931.321 121.405C865.01 121.131 811.33 67.3376 811.249 0.990276Z" fill="#D2FB51"/>
<path d="M1042.93 0.331055C1042.93 0.450676 1042.93 0.570339 1042.93 0.690042C1042.93 0.570339 1042.93 0.450676 1042.93 0.331055H1042.93Z" fill="#D2FB51"/>
<path d="M1042.93 0.990276C1042.85 67.3384 989.166 121.131 922.853 121.404C989.046 121.677 1042.65 175.278 1042.93 241.461H1042.93C1043.2 175.279 1096.81 121.679 1163 121.405C1096.69 121.131 1043.01 67.3376 1042.93 0.990276Z" fill="#D2FB51"/>
<path d="M581.501 0.331055C581.501 0.424286 581.501 0.517543 581.501 0.610824C581.502 0.517542 581.502 0.424286 581.502 0.331055H581.501Z" fill="#D2FB51"/>
<path d="M581.501 1.06948C581.378 67.3813 527.713 121.131 461.427 121.404C527.62 121.677 581.227 175.278 581.501 241.461H581.502C581.775 175.279 635.382 121.679 701.573 121.405C635.289 121.131 581.625 67.3804 581.501 1.06948Z" fill="#D2FB51"/>
<path d="M349.824 0.331055H349.821C349.822 0.500698 349.822 0.670425 349.822 0.840233C349.822 67.2572 296.11 121.131 229.748 121.404C295.941 121.677 349.548 175.278 349.821 241.461H349.824C350.097 175.279 403.703 121.679 469.894 121.405C403.533 121.13 349.822 67.2564 349.822 0.840233C349.822 0.670425 349.823 0.500698 349.824 0.331055Z" fill="#D2FB51"/>
<path d="M120.074 0.331055L120.075 0.552664L120.075 0.331055H120.074Z" fill="#D2FB51"/>
<path d="M120.075 1.12772C119.92 67.4128 66.2666 121.131 0 121.404C66.1931 121.677 119.801 175.278 120.074 241.461H120.075C120.348 175.279 173.955 121.679 240.147 121.405C173.881 121.131 120.229 67.412 120.075 1.12772Z" fill="#D2FB51"/>
<path d="M811.248 240.966C811.249 241.086 811.249 241.205 811.249 241.325C811.25 241.205 811.25 241.086 811.25 240.966H811.248Z" fill="#D2FB51"/>
<path d="M811.249 241.625C811.169 307.974 757.487 361.766 691.175 362.039C757.368 362.312 810.975 415.913 811.248 482.096H811.25C811.523 415.914 865.13 362.314 931.321 362.04C865.01 361.766 811.33 307.973 811.249 241.625Z" fill="#D2FB51"/>
<path d="M1042.93 240.966C1042.93 241.086 1042.93 241.205 1042.93 241.325C1042.93 241.205 1042.93 241.086 1042.93 240.966H1042.93Z" fill="#D2FB51"/>
<path d="M1042.93 241.625C1042.85 307.974 989.166 361.766 922.853 362.039C989.046 362.312 1042.65 415.913 1042.93 482.096H1042.93C1043.2 415.914 1096.81 362.314 1163 362.04C1096.69 361.766 1043.01 307.973 1042.93 241.625Z" fill="#D2FB51"/>
<path d="M581.501 240.966C581.501 241.059 581.501 241.153 581.501 241.246C581.502 241.153 581.502 241.059 581.502 240.966H581.501Z" fill="#D2FB51"/>
<path d="M581.501 241.705C581.378 308.016 527.713 361.767 461.427 362.039C527.62 362.312 581.227 415.913 581.501 482.096H581.502C581.775 415.914 635.382 362.314 701.573 362.04C635.289 361.766 581.625 308.016 581.501 241.705Z" fill="#D2FB51"/>
<path d="M349.824 240.966H349.821C349.822 241.136 349.822 241.306 349.822 241.475C349.822 307.892 296.11 361.766 229.748 362.039C295.941 362.312 349.548 415.913 349.821 482.096H349.824C350.097 415.914 403.703 362.315 469.894 362.04C403.533 361.766 349.822 307.892 349.822 241.475C349.822 241.306 349.823 241.136 349.824 240.966Z" fill="#D2FB51"/>
<path d="M120.074 240.966L120.075 241.188L120.075 240.966H120.074Z" fill="#D2FB51"/>
<path d="M120.075 241.763C119.92 308.048 66.2666 361.767 0 362.039C66.193 362.312 119.801 415.913 120.074 482.096H120.075C120.348 415.914 173.955 362.314 240.147 362.04C173.881 361.766 120.229 308.047 120.075 241.763Z" fill="#D2FB51"/>
<path d="M811.248 481.601C811.249 481.721 811.249 481.84 811.249 481.96C811.25 481.84 811.25 481.721 811.25 481.601H811.248Z" fill="#D2FB51"/>
<path d="M811.249 482.26C811.169 548.609 757.487 602.401 691.175 602.674V602.676C757.368 602.948 810.975 656.548 811.248 722.732H811.25C811.523 656.549 865.13 602.95 931.321 602.676V602.674C865.01 602.4 811.33 548.608 811.249 482.26Z" fill="#D2FB51"/>
<path d="M1042.93 481.601C1042.93 481.721 1042.93 481.84 1042.93 481.96C1042.93 481.84 1042.93 481.721 1042.93 481.601H1042.93Z" fill="#D2FB51"/>
<path d="M1042.93 482.26C1042.85 548.609 989.166 602.401 922.853 602.674V602.676C989.046 602.948 1042.65 656.548 1042.93 722.732H1042.93C1043.2 656.549 1096.81 602.95 1163 602.676V602.674C1096.69 602.4 1043.01 548.608 1042.93 482.26Z" fill="#D2FB51"/>
<path d="M581.501 481.601C581.501 481.694 581.501 481.788 581.501 481.881C581.502 481.788 581.502 481.694 581.502 481.601H581.501Z" fill="#D2FB51"/>
<path d="M581.501 482.34C581.378 548.651 527.713 602.401 461.427 602.674V602.676C527.62 602.948 581.227 656.548 581.501 722.732H581.502C581.775 656.549 635.382 602.95 701.573 602.676V602.674C635.289 602.4 581.625 548.651 581.501 482.34Z" fill="#D2FB51"/>
<path d="M349.824 481.601H349.821C349.822 481.771 349.822 481.941 349.822 482.11C349.822 548.527 296.11 602.401 229.748 602.674V602.676C295.941 602.948 349.548 656.548 349.821 722.732H349.824C350.097 656.549 403.703 602.95 469.894 602.676V602.674C403.533 602.4 349.822 548.527 349.822 482.11C349.822 481.941 349.823 481.771 349.824 481.601Z" fill="#D2FB51"/>
<path d="M120.074 481.601L120.075 481.823L120.075 481.601H120.074Z" fill="#D2FB51"/>
<path d="M120.075 482.398C119.92 548.683 66.2666 602.402 0 602.674V602.676C66.193 602.948 119.801 656.548 120.074 722.732H120.075C120.348 656.549 173.955 602.949 240.147 602.676V602.674C173.881 602.4 120.229 548.682 120.075 482.398Z" fill="#D2FB51"/>
<path d="M811.248 722.236C811.249 722.356 811.249 722.475 811.249 722.595C811.25 722.475 811.25 722.356 811.25 722.236H811.248Z" fill="#D2FB51"/>
<path d="M811.249 722.895C811.169 789.243 757.487 843.036 691.175 843.309V843.311C757.368 843.583 810.975 897.183 811.248 963.367H811.25C811.523 897.184 865.13 843.585 931.321 843.311V843.309C865.01 843.035 811.33 789.243 811.249 722.895Z" fill="#D2FB51"/>
<path d="M1042.93 722.236C1042.93 722.356 1042.93 722.475 1042.93 722.595C1042.93 722.475 1042.93 722.356 1042.93 722.236H1042.93Z" fill="#D2FB51"/>
<path d="M1042.93 722.895C1042.85 789.243 989.166 843.036 922.853 843.309V843.311C989.046 843.583 1042.65 897.183 1042.93 963.367H1042.93C1043.2 897.184 1096.81 843.585 1163 843.311V843.309C1096.69 843.035 1043.01 789.243 1042.93 722.895Z" fill="#D2FB51"/>
<path d="M581.501 722.236C581.501 722.329 581.501 722.423 581.501 722.516C581.502 722.423 581.502 722.329 581.502 722.236H581.501Z" fill="#D2FB51"/>
<path d="M581.501 722.974C581.378 789.286 527.713 843.036 461.427 843.309V843.311C527.62 843.583 581.227 897.183 581.501 963.367H581.502C581.775 897.184 635.382 843.585 701.573 843.311V843.309C635.289 843.035 581.625 789.285 581.501 722.974Z" fill="#D2FB51"/>
<path d="M349.824 722.236H349.821C349.822 722.406 349.822 722.575 349.822 722.745C349.822 789.162 296.11 843.036 229.748 843.309V843.311C295.941 843.583 349.548 897.183 349.821 963.367H349.824C350.097 897.184 403.703 843.585 469.894 843.311V843.309C403.533 843.035 349.822 789.161 349.822 722.745C349.822 722.575 349.823 722.406 349.824 722.236Z" fill="#D2FB51"/>
<path d="M120.074 722.236L120.075 722.458L120.075 722.236H120.074Z" fill="#D2FB51"/>
<path d="M120.075 723.033C119.92 789.318 66.2666 843.036 0 843.309V843.311C66.193 843.583 119.801 897.183 120.074 963.367H120.075C120.348 897.184 173.955 843.584 240.147 843.311V843.309C173.881 843.035 120.229 789.317 120.075 723.033Z" fill="#D2FB51"/>
<path d="M811.248 926.201C811.249 926.32 811.249 926.44 811.249 926.559C811.25 926.44 811.25 926.32 811.25 926.201H811.248Z" fill="#D2FB51"/>
<path d="M811.249 926.86C811.169 993.208 757.487 1047 691.175 1047.27V1047.27C757.368 1047.55 810.975 1101.15 811.248 1167.33H811.25C811.523 1101.15 865.13 1047.55 931.321 1047.27V1047.27C865.01 1047 811.33 993.207 811.249 926.86Z" fill="#D2FB51"/>
<path d="M1042.93 926.201C1042.93 926.32 1042.93 926.44 1042.93 926.559C1042.93 926.44 1042.93 926.32 1042.93 926.201H1042.93Z" fill="#D2FB51"/>
<path d="M1042.93 926.86C1042.85 993.208 989.166 1047 922.853 1047.27V1047.27C989.046 1047.55 1042.65 1101.15 1042.93 1167.33H1042.93C1043.2 1101.15 1096.81 1047.55 1163 1047.27V1047.27C1096.69 1047 1043.01 993.207 1042.93 926.86Z" fill="#D2FB51"/>
<path d="M581.501 926.201C581.501 926.294 581.501 926.387 581.501 926.48C581.502 926.387 581.502 926.294 581.502 926.201H581.501Z" fill="#D2FB51"/>
<path d="M581.501 926.939C581.378 993.251 527.713 1047 461.427 1047.27V1047.27C527.62 1047.55 581.228 1101.15 581.501 1167.33H581.502C581.775 1101.15 635.382 1047.55 701.573 1047.27V1047.27C635.289 1047 581.625 993.25 581.501 926.939Z" fill="#D2FB51"/>
<path d="M349.824 926.201H349.821C349.822 926.37 349.822 926.54 349.822 926.709C349.822 993.126 296.11 1047 229.748 1047.27V1047.27C295.941 1047.55 349.548 1101.15 349.821 1167.33H349.824C350.097 1101.15 403.703 1047.55 469.894 1047.27V1047.27C403.533 1047 349.822 993.126 349.822 926.709C349.822 926.54 349.823 926.37 349.824 926.201Z" fill="#D2FB51"/>
<path d="M120.074 926.201L120.075 926.422L120.075 926.201H120.074Z" fill="#D2FB51"/>
<path d="M120.075 926.997C119.92 993.282 66.2666 1047 0 1047.27V1047.27C66.1931 1047.55 119.801 1101.15 120.074 1167.33H120.075C120.348 1101.15 173.955 1047.55 240.147 1047.27V1047.27C173.881 1047 120.229 993.281 120.075 926.997Z" fill="#D2FB51"/>
<path d="M119 120.983H1046V1046.85H119V120.983Z" fill="#D2FB51"/>
</svg>
