<svg width="1163" height="242" viewBox="0 0 1163 242" fill="none" xmlns="http://www.w3.org/2000/svg">
<path fill-rule="evenodd" clip-rule="evenodd" d="M811.248 0C811.249 0.108384 811.249 0.216803 811.249 0.325255C811.249 0.216803 811.25 0.108385 811.25 0H811.248ZM811.249 0.692977C811.15 67.035 757.476 120.817 691.175 121.09V121.091C757.368 121.364 810.975 174.971 811.248 241.164H811.25C811.523 174.972 865.13 121.365 931.321 121.091V121.09C865.022 120.816 811.348 67.0342 811.249 0.692977Z" fill="white"/>
<path fill-rule="evenodd" clip-rule="evenodd" d="M1042.93 0C1042.93 0.108384 1042.93 0.216803 1042.93 0.325255C1042.93 0.216803 1042.93 0.108385 1042.93 0H1042.93ZM1042.93 0.692977C1042.83 67.035 989.155 120.817 922.854 121.09V121.091C989.046 121.364 1042.65 174.971 1042.93 241.164H1042.93C1043.2 174.972 1096.81 121.365 1163 121.091V121.09C1096.7 120.816 1043.03 67.0342 1042.93 0.692977Z" fill="white"/>
<path fill-rule="evenodd" clip-rule="evenodd" d="M581.5 0C581.501 0.108384 581.501 0.216803 581.501 0.325255C581.501 0.216803 581.502 0.108385 581.502 0H581.5ZM581.501 0.692977C581.402 67.035 527.728 120.817 461.427 121.09V121.091C527.62 121.364 581.227 174.971 581.5 241.164H581.502C581.775 174.972 635.382 121.365 701.573 121.091V121.09C635.273 120.816 581.6 67.0342 581.501 0.692977Z" fill="white"/>
<path fill-rule="evenodd" clip-rule="evenodd" d="M349.824 0H349.821C349.822 0.169656 349.822 0.339395 349.822 0.509216C349.822 66.9356 296.11 120.817 229.748 121.09V121.091C295.941 121.364 349.548 174.971 349.821 241.164H349.824C350.097 174.972 403.703 121.365 469.895 121.091V121.09C403.534 120.815 349.823 66.9348 349.823 0.509216C349.823 0.339395 349.823 0.169656 349.824 0Z" fill="white"/>
<path fill-rule="evenodd" clip-rule="evenodd" d="M120.074 0C120.074 0.107539 120.074 0.215112 120.075 0.322717C120.075 0.215112 120.075 0.107539 120.075 0H120.074ZM120.075 0.695535C119.974 67.0364 66.3002 120.817 0 121.09V121.091C66.193 121.364 119.801 174.971 120.074 241.164H120.075C120.348 174.972 173.955 121.365 240.147 121.091V121.09C173.848 120.816 120.175 67.0356 120.075 0.695535Z" fill="white"/>
</svg>
